<svg id="Group_32" data-name="Group 32" xmlns="http://www.w3.org/2000/svg" xmlns:xlink="http://www.w3.org/1999/xlink" width="297.792" height="452.567" viewBox="0 0 297.792 452.567">
  <defs>
    <clipPath id="clip-path">
      <rect id="Rectangle_34" data-name="Rectangle 34" width="297.792" height="452.567" fill="none"/>
    </clipPath>
    <clipPath id="clip-path-3">
      <rect id="Rectangle_32" data-name="Rectangle 32" width="297.792" height="63.947" transform="translate(0 388.62)" fill="none"/>
    </clipPath>
  </defs>
  <g id="Group_31" data-name="Group 31" clip-path="url(#clip-path)">
    <g id="Group_30" data-name="Group 30">
      <g id="Group_29" data-name="Group 29" clip-path="url(#clip-path)">
        <g id="Group_28" data-name="Group 28" opacity="0.208">
          <g id="Group_27" data-name="Group 27">
            <g id="Group_26" data-name="Group 26" clip-path="url(#clip-path-3)">
              <path id="Path_837" data-name="Path 837" d="M148.9,388.62q3.655,0,7.306.039t7.288.115q3.637.077,7.254.192t7.2.268q3.585.153,7.131.344t7.043.419q3.5.228,6.939.492t6.819.565q3.376.3,6.681.636t6.528.7q3.223.371,6.359.774t6.174.839q3.039.437,5.975.9t5.762.966q2.825.5,5.533,1.025t5.293,1.082q2.585.555,5.039,1.136t4.774,1.189q2.319.606,4.5,1.237t4.208,1.283q2.031.653,3.91,1.326t3.6,1.365q1.724.693,3.286,1.4t2.962,1.435q1.4.725,2.63,1.464t2.292,1.49q1.062.751,1.95,1.513a19.2,19.2,0,0,1,1.6,1.531,13.877,13.877,0,0,1,1.249,1.546,10.335,10.335,0,0,1,.9,1.557,8.022,8.022,0,0,1,.537,1.566,6.924,6.924,0,0,1,0,3.137,7.99,7.99,0,0,1-.537,1.565,10.3,10.3,0,0,1-.9,1.558,13.969,13.969,0,0,1-1.249,1.546,19.356,19.356,0,0,1-1.6,1.531q-.888.762-1.95,1.513t-2.292,1.49q-1.232.74-2.63,1.464t-2.962,1.435q-1.563.709-3.286,1.4t-3.6,1.365q-1.879.674-3.91,1.326t-4.208,1.283q-2.176.63-4.5,1.237t-4.773,1.188q-2.455.582-5.04,1.137t-5.293,1.082q-2.708.528-5.533,1.025t-5.762.966q-2.936.467-5.975.9t-6.174.84q-3.135.4-6.359.773t-6.528.706q-3.3.336-6.681.636t-6.819.565q-3.441.264-6.939.492t-7.043.419q-3.546.19-7.131.343t-7.2.269q-3.617.115-7.254.192t-7.288.115q-3.651.039-7.306.039t-7.306-.039q-3.651-.038-7.288-.115t-7.254-.192q-3.615-.115-7.2-.269t-7.131-.343q-3.546-.192-7.043-.419t-6.939-.492q-3.442-.266-6.819-.565t-6.681-.636q-3.3-.336-6.528-.706t-6.359-.773q-3.135-.4-6.174-.84t-5.975-.9q-2.936-.468-5.762-.966T48.9,444.284q-2.709-.526-5.293-1.082t-5.04-1.137q-2.454-.58-4.773-1.188t-4.5-1.237q-2.178-.63-4.208-1.283t-3.91-1.326q-1.88-.674-3.6-1.365t-3.286-1.4q-1.563-.71-2.962-1.435T8.7,431.365q-1.232-.739-2.292-1.49t-1.95-1.513a19.356,19.356,0,0,1-1.6-1.531,13.97,13.97,0,0,1-1.249-1.546,10.3,10.3,0,0,1-.895-1.558,8.061,8.061,0,0,1-.538-1.565,6.962,6.962,0,0,1,0-3.137,8.093,8.093,0,0,1,.538-1.566,10.334,10.334,0,0,1,.895-1.557,13.878,13.878,0,0,1,1.249-1.546,19.2,19.2,0,0,1,1.6-1.531q.888-.762,1.95-1.513t2.292-1.49q1.231-.739,2.63-1.464t2.962-1.435q1.563-.709,3.286-1.4t3.6-1.365q1.878-.674,3.91-1.326t4.208-1.283q2.177-.63,4.5-1.237t4.773-1.189q2.456-.58,5.04-1.136T48.9,396.9q2.708-.528,5.533-1.025t5.762-.966q2.935-.468,5.975-.9t6.174-.839q3.135-.4,6.359-.774t6.528-.7q3.3-.336,6.681-.636t6.819-.565q3.441-.264,6.939-.492t7.043-.419q3.546-.191,7.131-.344t7.2-.268q3.617-.115,7.254-.192t7.288-.115q3.651-.039,7.306-.039" fill="#100b13"/>
            </g>
          </g>
        </g>
        <path id="Path_838" data-name="Path 838" d="M33.367,409.431V19.143q0-.94.092-1.876t.276-1.858q.183-.923.456-1.822t.633-1.769q.36-.87.8-1.7t.966-1.612Q37.115,7.726,37.712,7t1.262-1.392q.665-.664,1.392-1.261a19.191,19.191,0,0,1,3.12-2.085q.83-.444,1.7-.8T46.953.825q.9-.273,1.822-.457T50.633.093Q51.569,0,52.51,0H248.367q.94,0,1.877.092T252.1.368q.922.184,1.822.457t1.769.633q.869.36,1.7.8T259,3.227q.781.522,1.509,1.119T261.9,5.607q.666.666,1.262,1.392t1.119,1.509q.522.783.966,1.612t.8,1.7q.36.869.633,1.769t.456,1.822a18.781,18.781,0,0,1,.276,1.858q.093.936.092,1.876V409.431q0,.941-.092,1.876a18.738,18.738,0,0,1-.276,1.858q-.183.922-.456,1.823t-.633,1.769q-.36.869-.8,1.7t-.966,1.611q-.522.781-1.119,1.509t-1.262,1.392q-.665.664-1.391,1.262T259,425.348q-.783.522-1.612.965t-1.7.8q-.868.36-1.769.632t-1.822.457q-.923.183-1.858.276t-1.877.092H52.51q-.94,0-1.877-.092t-1.858-.276q-.923-.183-1.822-.457t-1.769-.632q-.868-.36-1.7-.8t-1.611-.965q-.783-.523-1.509-1.119t-1.392-1.262q-.666-.665-1.262-1.392t-1.119-1.509q-.522-.781-.966-1.611t-.8-1.7q-.36-.87-.633-1.769t-.456-1.823q-.185-.921-.276-1.858t-.092-1.876" fill="#101124"/>
        <path id="Path_839" data-name="Path 839" d="M43.056,400.426V28.146q0-.939.092-1.876t.276-1.858q.183-.922.456-1.822t.633-1.769q.36-.868.8-1.7t.966-1.612Q46.8,16.729,47.4,16t1.262-1.391q.665-.666,1.392-1.262a18.746,18.746,0,0,1,1.509-1.119q.781-.522,1.611-.966t1.7-.8q.868-.36,1.769-.633t1.822-.457q.922-.183,1.858-.275T62.2,9H238.678q.94,0,1.876.092t1.859.275q.923.185,1.822.457t1.769.633q.868.36,1.7.8t1.611.966q.783.522,1.509,1.119t1.392,1.262q.664.664,1.262,1.391t1.119,1.509q.522.783.966,1.612t.8,1.7q.36.869.633,1.769t.456,1.822q.183.922.276,1.858t.092,1.876v372.28q0,.941-.092,1.876t-.276,1.859q-.183.921-.456,1.822t-.633,1.769q-.36.868-.8,1.7t-.966,1.611q-.523.781-1.119,1.509t-1.262,1.392q-.665.664-1.392,1.262t-1.509,1.119q-.781.522-1.611.965t-1.7.8q-.868.36-1.769.633t-1.822.456q-.922.183-1.859.276t-1.876.092H62.2q-.941,0-1.877-.092t-1.858-.276q-.923-.183-1.822-.457t-1.769-.632q-.869-.36-1.7-.8t-1.611-.965q-.783-.523-1.509-1.119t-1.392-1.262Q48,413.3,47.4,412.57t-1.119-1.509q-.522-.781-.966-1.611t-.8-1.7q-.36-.87-.633-1.769t-.456-1.822q-.185-.923-.276-1.859t-.092-1.876" fill="#fff"/>
        <path id="Path_840" data-name="Path 840" d="M55.638,271.978V196.489a9.838,9.838,0,0,1,.754-3.79,9.909,9.909,0,0,1,9.151-6.115H235.335a9.925,9.925,0,0,1,7,2.9,9.882,9.882,0,0,1,2.709,5.072,9.874,9.874,0,0,1,.192,1.932v75.489a9.9,9.9,0,0,1-9.9,9.9H65.543a9.9,9.9,0,0,1-9.9-9.9" fill="#d9d2e9"/>
        <path id="Path_841" data-name="Path 841" d="M142.844,69.968h95.292a9.442,9.442,0,0,1,9.442,9.442v20.5a9.435,9.435,0,0,1-7.92,9.308l.675,9.711-5.854-9.577H142.844a9.442,9.442,0,0,1-9.442-9.442V79.41a9.442,9.442,0,0,1,9.442-9.442" fill="#d9d2e9"/>
        <path id="Path_842" data-name="Path 842" d="M162.019,127.489H66.727a9.442,9.442,0,0,0-9.442,9.442v20.5a9.437,9.437,0,0,0,7.92,9.308l-.675,9.71,5.854-9.577h91.635a9.441,9.441,0,0,0,9.442-9.441v-20.5a9.442,9.442,0,0,0-9.442-9.442" fill="#d5d4d2"/>
        <path id="Path_843" data-name="Path 843" d="M55.638,321.349V304.721a9.838,9.838,0,0,1,.754-3.79,9.908,9.908,0,0,1,3.648-4.445,9.9,9.9,0,0,1,3.57-1.479,9.868,9.868,0,0,1,1.933-.19H235.335a9.914,9.914,0,0,1,9.9,9.9v16.628a9.91,9.91,0,0,1-9.9,9.9H65.543a9.948,9.948,0,0,1-3.792-.754,9.909,9.909,0,0,1-3.212-2.147,9.886,9.886,0,0,1-2.9-7" fill="#d5d4d2"/>
        <path id="Path_844" data-name="Path 844" d="M51.3,402.138V385.51a9.9,9.9,0,0,1,9.905-9.9H239.671a9.9,9.9,0,0,1,9.9,9.9v16.628a9.908,9.908,0,0,1-9.9,9.9H61.205a9.9,9.9,0,0,1-9.905-9.9" fill="#d9d2e9"/>
        <path id="Path_845" data-name="Path 845" d="M102.865,21.941V8.042a3.077,3.077,0,0,1,3.077-3.077h88.992a3.079,3.079,0,0,1,3.078,3.077v13.9a3.077,3.077,0,0,1-3.078,3.077H105.942a3.076,3.076,0,0,1-3.077-3.077" fill="#101124"/>
        <path id="Path_846" data-name="Path 846" d="M252.949,430.619V371.164H241.738l9.612,59.584a.8.8,0,0,0,1.6-.129" fill="#890b16"/>
        <path id="Path_847" data-name="Path 847" d="M216.56,417.921V358.466H205.349l9.611,59.584a.805.805,0,0,0,1.6-.129" fill="#890b16"/>
        <path id="Path_848" data-name="Path 848" d="M96.072,430.619V371.164H84.861l9.612,59.584a.8.8,0,0,0,1.6-.129" fill="#890b16"/>
        <path id="Path_849" data-name="Path 849" d="M136.194,417.921V358.466H124.983l9.611,59.584a.805.805,0,0,0,1.6-.129" fill="#890b16"/>
        <path id="Path_850" data-name="Path 850" d="M248.033,373.373H231.35l8.033-102.732h18.4A16.764,16.764,0,0,1,274.546,287.4l-6.894,68.233a19.719,19.719,0,0,1-19.619,17.736" fill="#dc3331"/>
        <path id="Path_851" data-name="Path 851" d="M220.7,274.777s-9.449-43.437-12.757-60.4-7.189-27.3-31.1-27.3H125.208c-10.756,0-38.84.656-38.449,17.909s13.453,85.1,13.453,85.1Z" fill="#d50a2a"/>
        <path id="Path_852" data-name="Path 852" d="M239.383,270.64H202.018l22.472,93.436,6.86,9.3Z" fill="#d10028"/>
        <path id="Path_853" data-name="Path 853" d="M118.727,191.316l-15.045-2.235s-28.943,2.546-39.285,5.441S49.5,203.21,50.332,215.206s10.755,55.578,10.755,55.578-19.857-.144-17.375,15.989S57.778,345.1,59.846,355.858,76.431,373.1,86.755,373.373s43.833-.2,43.833-.2Z" fill="#dc3331"/>
        <path id="Path_854" data-name="Path 854" d="M226.145,373.373H153.728c-15.564,0-42.585.5-45.351-4.691-4.243-7.962-11.3-39.713-15.436-60.811s-3.4-33.576,4.038-35.336,27.815-1.751,27.815-1.751,4.064-6.967,9.164,26.317,6.268,44.279,33.715,44.279,30.524-8.688,30.524-8.688Z" fill="#d50a2a"/>
        <path id="Path_855" data-name="Path 855" d="M106.728,200.9c.31-4.566-3.111-9.17-1.5-13.453,1.325-3.527,5.472-5.122,7.58-8.236a15.535,15.535,0,0,0-.251-4.263c-.426-1.993-1.326-3.881-1.546-5.909-.6-5.537,4.315-10.532,9.757-11.713s11.1.59,16.123,2.982c.8-3.808,5.475-5.509,9.342-5.068s7.465,2.3,11.33,2.749c4.845.565,9.871-1.1,14.568.213a23.735,23.735,0,0,1,6.04,3.018c3.062,1.915,6.173,3.872,8.535,6.6s3.9,6.408,3.237,9.957c-.366,1.959-1.352,4.08-.365,5.81,1.174,2.06,4.19,1.938,6.179,3.231,2.711,1.759,2.888,5.737,1.861,8.8s-2.941,5.843-3.453,9.035c-.57,3.549.606,7.476-1.154,10.611a12.689,12.689,0,0,1-4.415,4.027l-7.221,4.735c-1.205.789-2.587,1.616-4,1.31-1.021-.222-1.866-1.017-2.9-1.141-1.5-.177-2.742,1.066-3.932,2-2.376,1.868-12.234,4.857-13.124.009-.511-2.783.7-31.89-5.083-31.317-5.247.519-9.118,5.188-11.362,9.96s-3.534,10.063-6.694,14.284a19.57,19.57,0,0,1-14.483,7.7,12.617,12.617,0,0,1-7.581-1.841,14.283,14.283,0,0,1-2.961-.514c-4.269-1.247-7.963-5.183-7.787-9.627.2-5.015,4.921-8.949,5.26-13.957" fill="#0e0b10"/>
        <path id="Path_856" data-name="Path 856" d="M175.008,234.273a8.612,8.612,0,0,1,3.734.982,7.984,7.984,0,0,1,2.762,3.8c2.978,6.873,4.1,14.384,5.19,21.795,1.995,13.532,3.971,27.5.557,40.744-.563,2.188-1.356,4.466-3.112,5.89-2.312,1.874-5.578,1.753-8.534,2.1-13.215,1.53-23.592,13.712-36.881,14.322-2.521-5.154-3.045-11.017-3.7-16.719a293.653,293.653,0,0,0-5.424-31.821,3.925,3.925,0,0,0-4.709-3.8q-10.189-.26-20.382-.008c-1.476.035-3.249-.079-3.973-1.366a4.072,4.072,0,0,1-.3-2.242q.492-8.756,1.54-17.465c.385-3.2.871-6.518,2.643-9.211,2.068-3.147,5.6-5,9.107-6.362a57.563,57.563,0,0,1,30.745-2.844c10.058,1.749,20.53,1.146,30.737,2.205" fill="#ffe835"/>
        <path id="Path_857" data-name="Path 857" d="M136.183,221.9c1.976-2.353,5.829-1.684,8.436-.058,1.775,1.109,4.725,2.643,6.116,4.142,2.031,2.186,1.83,3.66,1.967,7.091q.4,10.044.462,20.094c-2.156.674-4.525-.425-6.107-2.036a33.546,33.546,0,0,1-3.819-5.581A27.955,27.955,0,0,0,130.616,235c-.894-.373-1.925-.826-2.169-1.763-.361-1.386,1.21-2.4,2.393-3.206" fill="#976551"/>
        <path id="Path_858" data-name="Path 858" d="M157.968,191.329c3.514.127,7.168,1.57,9.082,4.519a11.962,11.962,0,0,1,1.675,5.6c.63,8.011-3.337,15.763-8.569,21.864-3.578,4.17-8.616,8.054-14.032,7.136a12.352,12.352,0,0,1-5.995-3.083c-5.235-4.626-9.935-18.67-8.165-25.429,2.618-9.995,15.8-10.983,26-10.611" fill="#b3765f"/>
        <path id="Path_859" data-name="Path 859" d="M146.651,337.408c10.776,4.2,22.49,7.526,33.8,5.134a20.046,20.046,0,0,0,10.061-4.888c2.939-2.9,4.442-6.95,5.368-10.973a51.453,51.453,0,0,0-.851-26.2,36.9,36.9,0,0,0-24.8-2.172c-8.229,2.161-15.718,6.652-22.193,12.171-4.367,3.722-8.49,8.24-9.67,13.854s2.938,10.993,8.284,13.074" fill="#1d0730"/>
        <path id="Path_860" data-name="Path 860" d="M212.993,301.3c6.4-1.248,12.795,3.348,15.708,9.178s3.108,12.6,3.075,19.115c-.112,22.335-2.206,44.916,2.067,66.84,1.864,1.976,3.566,6.221,1.244,7.631a4.609,4.609,0,0,1-1.845.5l-12.435,1.564a7.887,7.887,0,0,1-4.36-.277c-1.942-.921-2.768-3.194-3.39-5.252-4.911-16.232-8.7-32.963-8.886-49.92s-.138-34.982,8.822-49.38" fill="#1d0730"/>
        <path id="Path_861" data-name="Path 861" d="M186.285,288.153c2.164-5.7,4.461-11.6,8.878-15.791s11.616-6.135,16.7-2.772c4.547,3.009,5.924,8.979,6.622,14.386,3.223,24.958-3.994,50.247-7.229,75.2,1.245,1.209-.154,4.381-1.843,4.78s-3.406-.331-5.082-.788a16.285,16.285,0,0,0-7.288-.292c-2.444.461-5.4,1.334-7.09-.49a5.9,5.9,0,0,1-1.2-3.018c-1.886-10.06-2.316-20.327-2.74-30.553L184.766,298.8a29.16,29.16,0,0,1,1.519-10.643" fill="#2f1552"/>
        <path id="Path_862" data-name="Path 862" d="M253.689,422.424c2.952,1.535,6.039,2.989,8.337,5.395a4.439,4.439,0,0,1,1.529,3.619c-.4,2.219-3.213,2.908-5.466,2.986-9.937.352-19.81-1.746-29.347-4.56-2.478-.732-5.131-1.648-6.579-3.789-1.145-1.691-1.315-3.836-1.451-5.873l-.8-12.09a3.92,3.92,0,0,1,.275-2.189c.623-1.12,2.108-1.346,3.386-1.446,2.518-.2,7.675-1.653,9.974-.4,1.875,1.02,3.462,5.461,4.959,7.19,4.143,4.785,9.63,8.246,15.184,11.162" fill="#b3765f"/>
        <path id="Path_863" data-name="Path 863" d="M213.476,380.059c2.234,1.489,4.5,3.456,4.835,6.119a1.433,1.433,0,0,1-.465,1.451,1.613,1.613,0,0,1-.891.14q-12.47-.423-24.906-1.467c-2.22-.187-4.722-.542-6.021-2.351-1.561-2.173-.517-5.264,1.063-7.424s3.694-4.057,4.422-6.634c1.041-3.691-.6-8.055,3.464-10.2,2.665-1.41,7.522-.657,9.627,1.481,2.465,2.5,1.7,5.882,1.992,9,.483,5.111,2.748,7.127,6.88,9.881" fill="#b3765f"/>
        <path id="Path_864" data-name="Path 864" d="M192.691,247.505a74.5,74.5,0,0,0,8.592-23.2,37.861,37.861,0,0,0-18.561-3.17c-1.9,8.418-3.977,16.668-5.881,25.085a14.168,14.168,0,0,0,8.7,5.152c2.819.477,5.722-1.385,7.148-3.863" fill="#101124"/>
        <path id="Path_865" data-name="Path 865" d="M198.019,264.035c.018-4.163.786-8.4-.183-12.446s-4.458-7.965-8.6-7.521a4.337,4.337,0,0,0-2.259.86,5.989,5.989,0,0,0-1.4,1.846,29.592,29.592,0,0,0-3.246,9.221,3.981,3.981,0,0,0,.025,2.037,5.471,5.471,0,0,0,1.626,1.913c2.758,2.583,3.813,6.5,4.263,10.251s.432,7.6,1.579,11.2a2.79,2.79,0,0,0,1.365,1.9c2.313.922,6.494-6.1,7.125-7.936,1.247-3.622-.3-7.533-.3-11.326" fill="#b3765f"/>
        <path id="Path_866" data-name="Path 866" d="M167.673,210.273c-1.154-1.324-5.714-8.947-6.918-10.227a9.381,9.381,0,0,0-12.121-.965c-.961.741-1.852,1.713-3.051,1.9-2.619.408-5.023-3.137-7.413-1.992-1.658.793-1.641,3.193-.977,4.906s1.74,3.458,1.338,5.253c-.155.687-.52,1.31-.72,1.986-.841,2.84,1.306,6.157-.151,8.736-1.308,2.314-4.922,2.332-6.955.622s-2.8-4.489-3.144-7.125a56.877,56.877,0,0,1-.142-11,17.534,17.534,0,0,1,1.487-7.046c1.285-2.481,3.615-4.241,5.985-5.717a52.041,52.041,0,0,1,14.8-6.3,28.211,28.211,0,0,1,12.42-.719,14.852,14.852,0,0,1,10.084,6.8c2.007,3.549,5.727,11.886,4.647,15.745-1.159,4.136-6.151,8.6-9.168,5.132" fill="#0e0b10"/>
        <path id="Path_867" data-name="Path 867" d="M131.73,285.538a244.7,244.7,0,0,1,32.488-23.2c3.4-2.04,7.118-4.155,11.054-3.7,4.693-1.136,8.9-4.373,9.351-9.181a3.99,3.99,0,0,0-.255-2.119c-.838-1.724-3.189-1.8-5.043-2.288s-3.647-2.922-2.122-4.082c-4.577-1.2-9.406,1.084-12.967,4.2s-6.311,7.067-9.848,10.21c-7.992,7.1-23.792,12.34-33.8,16.1-1.829.688,7.806-1.3,11.142,14.059" fill="#b3765f"/>
        <path id="Path_868" data-name="Path 868" d="M57.285,32.811v-.932a1.481,1.481,0,0,1,.435-1.049,1.481,1.481,0,0,1,1.049-.435H72.325a1.484,1.484,0,0,1,1.484,1.484v.932a1.481,1.481,0,0,1-.435,1.049,1.481,1.481,0,0,1-1.049.435H58.769a1.487,1.487,0,0,1-1.371-.916,1.476,1.476,0,0,1-.113-.568" fill="#c7c6c6"/>
        <path id="Path_869" data-name="Path 869" d="M57.285,38.4v-.932a1.481,1.481,0,0,1,.435-1.049,1.481,1.481,0,0,1,1.049-.435H72.325a1.484,1.484,0,0,1,1.484,1.484V38.4a1.481,1.481,0,0,1-.435,1.049,1.481,1.481,0,0,1-1.049.435H58.769a1.487,1.487,0,0,1-1.371-.916,1.476,1.476,0,0,1-.113-.568" fill="#c7c6c6"/>
        <path id="Path_870" data-name="Path 870" d="M57.285,43.981v-.932A1.481,1.481,0,0,1,57.72,42a1.481,1.481,0,0,1,1.049-.435H72.325a1.484,1.484,0,0,1,1.484,1.484v.932a1.481,1.481,0,0,1-.435,1.049,1.481,1.481,0,0,1-1.049.435H58.769a1.487,1.487,0,0,1-1.371-.916,1.476,1.476,0,0,1-.113-.568" fill="#c7c6c6"/>
        <path id="Path_871" data-name="Path 871" d="M231.3,43.862a1.364,1.364,0,0,1,.963.4,1.351,1.351,0,0,1-.442,2.209,1.369,1.369,0,0,1-1.484-.293,1.35,1.35,0,0,1,0-1.916,1.364,1.364,0,0,1,.963-.4" fill="#c7c6c6"/>
        <path id="Path_872" data-name="Path 872" d="M231.117,40.093h9.58l3.93-7.7h-14.82Zm10.358,1.269H230.046L228.3,31.122h18.4Z" fill="#c7c6c6"/>
        <path id="Path_873" data-name="Path 873" d="M229.054,32.391a.635.635,0,0,1-.625-.528,1.427,1.427,0,0,0-.592-1.021,2.668,2.668,0,0,0-1.823-.217.64.64,0,0,1-.765-.469.634.634,0,0,1,.466-.765,3.961,3.961,0,0,1,2.816.388,2.66,2.66,0,0,1,1.15,1.871.637.637,0,0,1-.519.733.785.785,0,0,1-.108.008" fill="#c7c6c6"/>
        <path id="Path_874" data-name="Path 874" d="M241.024,44H229.946V40.728a.635.635,0,1,1,1.271,0v2h9.807a.636.636,0,0,1,0,1.271" fill="#c7c6c6"/>
        <path id="Path_875" data-name="Path 875" d="M239.955,43.862a1.364,1.364,0,0,1,.963.4,1.351,1.351,0,0,1-.442,2.209,1.369,1.369,0,0,1-1.484-.293,1.35,1.35,0,0,1,0-1.916,1.364,1.364,0,0,1,.963-.4" fill="#c7c6c6"/>
        <path id="Path_876" data-name="Path 876" d="M243.375,36.877H229.819a.636.636,0,0,1,0-1.271h13.556a.636.636,0,0,1,0,1.271" fill="#c7c6c6"/>
      </g>
    </g>
  </g>
</svg>
