<svg xmlns="http://www.w3.org/2000/svg" xmlns:xlink="http://www.w3.org/1999/xlink" width="142.234" height="157.928" viewBox="0 0 142.234 157.928">
  <defs>
    <clipPath id="clip-path">
      <rect id="Rectangle_40" data-name="Rectangle 40" width="142.234" height="157.928" fill="none"/>
    </clipPath>
  </defs>
  <g id="Group_36" data-name="Group 36" transform="translate(0 0)">
    <g id="Group_35" data-name="Group 35" transform="translate(0 0)" clip-path="url(#clip-path)">
      <path id="Path_877" data-name="Path 877" d="M73.9,64.379l29.171-29.167A20.627,20.627,0,0,0,73.9,6.041L15.565,64.379a20.628,20.628,0,0,0,0,29.171L73.9,151.884a20.626,20.626,0,0,0,29.171-29.167L73.9,93.55a20.636,20.636,0,0,1,0-29.171" transform="translate(33.119 0)" fill="#ee5f64"/>
      <path id="Path_878" data-name="Path 878" d="M35.212,93.547,6.041,122.714a20.627,20.627,0,1,0,29.171,29.171L93.55,93.547a20.628,20.628,0,0,0,0-29.171L35.212,6.042A20.626,20.626,0,1,0,6.041,35.209L35.212,64.376a20.636,20.636,0,0,1,0,29.171" transform="translate(-0.001 0.003)" fill="#5d1c75"/>
    </g>
  </g>
</svg>
