<svg id="Group_25" data-name="Group 25" xmlns="http://www.w3.org/2000/svg" xmlns:xlink="http://www.w3.org/1999/xlink" width="352.907" height="531.904" viewBox="0 0 352.907 531.904">
  <defs>
    <clipPath id="clip-path">
      <rect id="Rectangle_21" data-name="Rectangle 21" width="352.907" height="531.904" fill="none"/>
    </clipPath>
    <clipPath id="clip-path-3">
      <rect id="Rectangle_17" data-name="Rectangle 17" width="204.544" height="31.414" transform="translate(148.363 500.49)" fill="none"/>
    </clipPath>
    <clipPath id="clip-path-4">
      <rect id="Rectangle_18" data-name="Rectangle 18" width="119.184" height="23.062" transform="translate(155.013 71.192)" fill="none"/>
    </clipPath>
    <clipPath id="clip-path-5">
      <rect id="Rectangle_19" data-name="Rectangle 19" width="128.848" height="22.089" transform="translate(0 486.836)" fill="none"/>
    </clipPath>
  </defs>
  <g id="Group_24" data-name="Group 24" clip-path="url(#clip-path)">
    <g id="Group_23" data-name="Group 23">
      <g id="Group_22" data-name="Group 22" clip-path="url(#clip-path)">
        <g id="Group_15" data-name="Group 15" opacity="0.141">
          <g id="Group_14" data-name="Group 14">
            <g id="Group_13" data-name="Group 13" clip-path="url(#clip-path-3)">
              <path id="Path_770" data-name="Path 770" d="M250.635,500.49q2.511,0,5.018.019t5.007.057q2.5.037,4.981.094t4.946.132q2.463.075,4.9.169t4.838.2q2.4.113,4.767.242t4.683.278q2.319.147,4.589.312t4.484.347q2.214.182,4.367.38t4.241.412q2.088.215,4.1.444t3.957.474q1.941.244,3.8.5t3.636.531q1.774.273,3.461.559t3.279.584q1.592.3,3.088.607t2.89.631q1.4.319,2.686.651t2.474.671q1.184.339,2.257.688t2.034.705q.961.357,1.807.719t1.575.732q.728.369,1.338.743a12.276,12.276,0,0,1,1.1.753,7.829,7.829,0,0,1,.858.759,4.933,4.933,0,0,1,.615.765,3.273,3.273,0,0,1,.369.769,2.478,2.478,0,0,1,0,1.542,3.266,3.266,0,0,1-.369.768,4.933,4.933,0,0,1-.615.765,7.732,7.732,0,0,1-.858.76,12.276,12.276,0,0,1-1.1.752q-.609.375-1.338.743t-1.575.732q-.846.363-1.807.72t-2.034.7q-1.074.35-2.257.689t-2.474.671q-1.291.33-2.686.651t-2.89.63q-1.5.311-3.088.608t-3.279.584q-1.686.285-3.461.558t-3.636.532q-1.86.258-3.8.5t-3.957.475q-2.018.23-4.1.444t-4.241.412q-2.152.2-4.367.38t-4.484.347q-2.27.165-4.589.312t-4.683.277q-2.364.131-4.767.242t-4.838.206q-2.434.093-4.9.169t-4.946.132q-2.482.055-4.981.094t-5.007.057q-2.507.018-5.018.019t-5.018-.019q-2.508-.02-5.006-.057t-4.982-.094q-2.484-.057-4.946-.132t-4.9-.169q-2.436-.094-4.838-.206t-4.766-.241q-2.364-.131-4.684-.278t-4.589-.312q-2.27-.165-4.484-.347t-4.367-.38q-2.154-.2-4.241-.412t-4.1-.444q-2.018-.23-3.958-.475t-3.8-.5q-1.86-.26-3.635-.532t-3.462-.558q-1.686-.286-3.278-.584t-3.089-.608q-1.5-.309-2.89-.63t-2.686-.651q-1.29-.331-2.474-.671t-2.257-.689q-1.074-.348-2.034-.7t-1.807-.72q-.846-.363-1.574-.732t-1.339-.743a12.277,12.277,0,0,1-1.1-.752,7.838,7.838,0,0,1-.858-.759,4.988,4.988,0,0,1-.615-.766,3.266,3.266,0,0,1-.369-.768,2.478,2.478,0,0,1,0-1.542,3.273,3.273,0,0,1,.369-.769,4.933,4.933,0,0,1,.615-.765,7.832,7.832,0,0,1,.858-.759,12.277,12.277,0,0,1,1.1-.753q.609-.374,1.339-.743t1.574-.732q.846-.363,1.807-.719t2.034-.705q1.074-.348,2.257-.688t2.474-.671q1.292-.332,2.686-.651t2.89-.631q1.5-.309,3.089-.607t3.278-.584q1.686-.286,3.462-.559t3.635-.531q1.86-.26,3.8-.5t3.958-.474q2.016-.229,4.1-.444t4.241-.412q2.152-.2,4.367-.38t4.484-.347q2.27-.165,4.589-.312t4.684-.278q2.362-.129,4.766-.242t4.838-.2q2.435-.094,4.9-.169t4.946-.132q2.482-.057,4.982-.094t5.006-.057q2.508-.02,5.018-.019" fill="#070909"/>
            </g>
          </g>
        </g>
        <path id="Path_771" data-name="Path 771" d="M39.222,475.288V74.832q0-.94.092-1.876T39.59,71.1q.183-.922.456-1.823t.633-1.768q.36-.87.8-1.7t.966-1.611q.522-.781,1.119-1.509T44.829,61.3q.665-.665,1.392-1.261a19.191,19.191,0,0,1,3.12-2.085q.83-.444,1.7-.8t1.769-.633q.9-.273,1.822-.457t1.858-.275q.936-.093,1.877-.093H259.778q.94,0,1.876.093t1.858.275q.923.183,1.823.457t1.768.633a18.675,18.675,0,0,1,1.7.8q.828.442,1.611.966t1.509,1.119q.726.6,1.392,1.261t1.261,1.392q.6.728,1.119,1.509a18.754,18.754,0,0,1,.966,1.611q.444.83.8,1.7t.633,1.768q.273.9.457,1.823t.275,1.858q.093.936.092,1.876V475.288q0,.941-.092,1.876t-.275,1.858q-.185.922-.457,1.823t-.633,1.769q-.36.868-.8,1.7a18.756,18.756,0,0,1-.966,1.611q-.522.781-1.119,1.509t-1.261,1.392q-.666.664-1.392,1.262t-1.509,1.119q-.781.522-1.611.965t-1.7.8q-.869.359-1.768.632t-1.823.457q-.922.183-1.858.276t-1.876.092H58.365q-.941,0-1.877-.092t-1.858-.276q-.923-.183-1.822-.457t-1.769-.632q-.869-.36-1.7-.8T47.73,491.2q-.783-.523-1.509-1.12t-1.392-1.261q-.666-.664-1.262-1.392t-1.119-1.509q-.522-.781-.966-1.611t-.8-1.7q-.36-.87-.633-1.769t-.456-1.823q-.185-.921-.276-1.858t-.092-1.876" fill="#150d1b"/>
        <path id="Path_772" data-name="Path 772" d="M49.141,442.845V100.678q0-.94.092-1.876t.276-1.859q.183-.921.456-1.822t.633-1.769q.36-.868.8-1.7t.966-1.611q.522-.781,1.119-1.509t1.262-1.392q.665-.665,1.392-1.262t1.509-1.119q.781-.522,1.611-.965t1.7-.8q.868-.36,1.769-.633t1.822-.456q.922-.183,1.858-.276t1.877-.092H249.859q.939,0,1.876.092t1.858.276q.922.183,1.822.456t1.769.633q.869.36,1.7.8t1.612.965q.782.523,1.509,1.119t1.392,1.262q.665.665,1.261,1.392t1.119,1.509q.523.782.966,1.611t.8,1.7q.36.87.633,1.769t.457,1.822q.183.922.275,1.859t.092,1.876V442.845q0,.94-.092,1.876t-.275,1.859q-.185.921-.457,1.822t-.633,1.769q-.36.869-.8,1.7t-.966,1.611q-.522.781-1.119,1.509t-1.261,1.392q-.666.664-1.392,1.262t-1.509,1.119q-.783.522-1.612.965t-1.7.8q-.868.36-1.769.632t-1.822.457q-.923.183-1.858.276t-1.876.092H68.284q-.94,0-1.877-.092t-1.858-.276q-.923-.183-1.822-.456t-1.769-.633q-.868-.36-1.7-.8t-1.611-.965q-.783-.523-1.509-1.119t-1.392-1.262q-.666-.665-1.262-1.392t-1.119-1.509q-.522-.781-.966-1.611t-.8-1.7q-.36-.87-.633-1.769t-.456-1.822q-.184-.922-.276-1.859t-.092-1.876" fill="#d1e1e9"/>
        <path id="Path_773" data-name="Path 773" d="M54.467,435.63V130.408q0-.94.092-1.876t.276-1.859q.183-.921.456-1.822t.633-1.769q.36-.869.8-1.7t.966-1.611q.522-.782,1.119-1.509t1.262-1.392q.664-.665,1.392-1.262t1.509-1.119q.781-.522,1.611-.965t1.7-.8q.869-.36,1.769-.632t1.822-.457q.922-.183,1.858-.276t1.877-.092H244.532q.94,0,1.877.092t1.858.276q.923.183,1.822.457t1.769.632q.868.36,1.7.8t1.612.965q.781.523,1.508,1.119t1.392,1.262q.666.665,1.262,1.392t1.119,1.509q.522.781.966,1.611t.8,1.7q.36.87.633,1.769t.456,1.822q.184.923.276,1.859t.092,1.876V435.63q0,.94-.092,1.876a18.747,18.747,0,0,1-.276,1.858q-.183.922-.456,1.823t-.633,1.769q-.36.869-.8,1.7t-.966,1.611q-.522.781-1.119,1.509t-1.262,1.392q-.664.665-1.392,1.262t-1.508,1.119q-.783.522-1.612.965t-1.7.8q-.868.36-1.769.632t-1.822.457q-.923.183-1.858.276t-1.877.092H73.61q-.94,0-1.877-.092t-1.858-.276q-.922-.183-1.822-.457t-1.769-.632q-.868-.36-1.7-.8t-1.611-.965q-.783-.523-1.509-1.119t-1.392-1.262q-.666-.664-1.262-1.392t-1.119-1.509q-.522-.782-.966-1.611t-.8-1.7q-.36-.87-.633-1.769t-.456-1.823q-.184-.921-.276-1.858t-.092-1.876" fill="#fff"/>
        <path id="Path_774" data-name="Path 774" d="M63.708,185.878V184.7a1.409,1.409,0,0,1,.106-.54,1.439,1.439,0,0,1,.306-.457,1.409,1.409,0,0,1,1-.412h14.1a1.409,1.409,0,0,1,1,.412,1.439,1.439,0,0,1,.306.457,1.41,1.41,0,0,1,.107.54v1.175a1.4,1.4,0,0,1-.107.539,1.409,1.409,0,0,1-1.3.87h-14.1a1.405,1.405,0,0,1-.54-.107,1.417,1.417,0,0,1-.763-.763,1.4,1.4,0,0,1-.106-.539" fill="#9e9d9c"/>
        <path id="Path_775" data-name="Path 775" d="M63.708,191.6v-1.174a1.41,1.41,0,0,1,.106-.541,1.439,1.439,0,0,1,.306-.457,1.409,1.409,0,0,1,1-.412h14.1a1.4,1.4,0,0,1,.539.107,1.42,1.42,0,0,1,.457.305,1.439,1.439,0,0,1,.306.457,1.411,1.411,0,0,1,.107.541V191.6A1.408,1.408,0,0,1,79.215,193h-14.1a1.405,1.405,0,0,1-1.409-1.409" fill="#9e9d9c"/>
        <path id="Path_776" data-name="Path 776" d="M63.708,197.313v-1.175a1.408,1.408,0,0,1,.106-.54,1.439,1.439,0,0,1,.306-.457,1.409,1.409,0,0,1,1-.412h14.1a1.409,1.409,0,0,1,1,.412,1.439,1.439,0,0,1,.306.457,1.409,1.409,0,0,1,.107.54v1.175a1.4,1.4,0,0,1-.107.539,1.408,1.408,0,0,1-1.3.87h-14.1a1.406,1.406,0,0,1-.54-.107,1.417,1.417,0,0,1-.763-.763,1.4,1.4,0,0,1-.106-.539" fill="#9e9d9c"/>
        <path id="Path_777" data-name="Path 777" d="M142.134,279.161a5.838,5.838,0,0,1,1.135.111,5.861,5.861,0,0,1,2.1.865,5.852,5.852,0,0,1,.882.72,5.743,5.743,0,0,1,.723.878,5.761,5.761,0,0,1,.869,4.346,5.786,5.786,0,0,1-1.592,2.965,5.8,5.8,0,0,1-1.889,1.256,5.848,5.848,0,0,1-5.461-.535,5.919,5.919,0,0,1-.882-.721,5.769,5.769,0,0,1-1.261-6.31,5.675,5.675,0,0,1,.538-1,5.743,5.743,0,0,1,.723-.878,5.815,5.815,0,0,1,1.889-1.255,5.777,5.777,0,0,1,1.092-.33,5.838,5.838,0,0,1,1.135-.111" fill="#9e9d9c"/>
        <path id="Path_778" data-name="Path 778" d="M141.347,263.049h40.945l16.8-32.913H135.745Zm44.273,5.428H136.768l-7.446-43.769h78.633Z" fill="#9e9d9c"/>
        <path id="Path_779" data-name="Path 779" d="M132.527,230.135a2.712,2.712,0,0,1-2.67-2.258,6.116,6.116,0,0,0-2.528-4.367c-2.524-1.67-6.478-1.231-7.8-.923a2.737,2.737,0,0,1-3.266-2.009,2.71,2.71,0,0,1,1.993-3.269c.287-.065,7.008-1.66,12.031,1.658a11.372,11.372,0,0,1,4.919,8,2.718,2.718,0,0,1-2.221,3.133,2.749,2.749,0,0,1-.461.037" fill="#9e9d9c"/>
        <path id="Path_780" data-name="Path 780" d="M183.69,279.755H136.344V265.762a2.714,2.714,0,1,1,5.427,0v8.565H183.69a2.714,2.714,0,1,1,0,5.428" fill="#9e9d9c"/>
        <path id="Path_781" data-name="Path 781" d="M179.122,279.161a5.838,5.838,0,0,1,1.135.111,5.861,5.861,0,0,1,2.1.865,5.853,5.853,0,0,1,.882.72,5.744,5.744,0,0,1,.723.878,5.761,5.761,0,0,1,.869,4.346,5.786,5.786,0,0,1-1.592,2.965,5.8,5.8,0,0,1-1.889,1.256,5.848,5.848,0,0,1-5.461-.535,5.919,5.919,0,0,1-.882-.721,5.779,5.779,0,0,1,0-8.189A5.815,5.815,0,0,1,176.9,279.6a5.777,5.777,0,0,1,1.092-.33,5.838,5.838,0,0,1,1.135-.111" fill="#9e9d9c"/>
        <path id="Path_782" data-name="Path 782" d="M193.739,249.3H135.8a2.714,2.714,0,1,1,0-5.428h57.942a2.714,2.714,0,0,1,0,5.428" fill="#9e9d9c"/>
        <path id="Path_783" data-name="Path 783" d="M159.071,469.359a9.483,9.483,0,0,1,3.629,18.246,9.483,9.483,0,0,1-12.391-5.132,9.483,9.483,0,0,1,8.762-13.114" fill="#8d68a9"/>
        <path id="Path_784" data-name="Path 784" d="M83.917,303.373a10.2,10.2,0,1,1-1.994.2,10.189,10.189,0,0,1,1.994-.2" fill="#dc3331"/>
        <path id="Path_785" data-name="Path 785" d="M81.267,319.059l-3.406-3.969a1.094,1.094,0,0,1,1.66-1.424l1.511,1.76c1.414-1.981,4.452-5.814,7.675-7.211a1.094,1.094,0,1,1,.869,2.008c-3.711,1.608-7.48,7.525-7.518,7.585Z" fill="#fff"/>
        <path id="Path_786" data-name="Path 786" d="M86.687,335.878v-2a2.389,2.389,0,0,1,.7-1.692,2.389,2.389,0,0,1,1.692-.7H230.656a2.392,2.392,0,0,1,2.392,2.393v2a2.394,2.394,0,0,1-.7,1.692,2.394,2.394,0,0,1-1.692.7H89.08a2.392,2.392,0,0,1-2.393-2.393" fill="#d1e1e9"/>
        <path id="Path_787" data-name="Path 787" d="M68.348,385.986v-2a2.389,2.389,0,0,1,.7-1.692,2.389,2.389,0,0,1,1.692-.7H248.995a2.392,2.392,0,0,1,2.392,2.393v2a2.394,2.394,0,0,1-.7,1.692,2.394,2.394,0,0,1-1.692.7H70.741a2.392,2.392,0,0,1-2.393-2.393" fill="#d1e1e9"/>
        <path id="Path_788" data-name="Path 788" d="M68.348,401.425v-2a2.389,2.389,0,0,1,.7-1.692,2.389,2.389,0,0,1,1.692-.7H248.995a2.392,2.392,0,0,1,2.392,2.393v2a2.394,2.394,0,0,1-.7,1.692,2.394,2.394,0,0,1-1.692.7H70.741a2.392,2.392,0,0,1-2.393-2.393" fill="#d1e1e9"/>
        <path id="Path_789" data-name="Path 789" d="M68.348,416.864v-2a2.389,2.389,0,0,1,.7-1.692,2.389,2.389,0,0,1,1.692-.7H248.995a2.392,2.392,0,0,1,2.392,2.393v2a2.394,2.394,0,0,1-.7,1.692,2.394,2.394,0,0,1-1.692.7H70.741a2.392,2.392,0,0,1-2.393-2.393" fill="#d1e1e9"/>
        <path id="Path_790" data-name="Path 790" d="M68.348,432.3v-2a2.389,2.389,0,0,1,.7-1.692,2.389,2.389,0,0,1,1.692-.7H248.995a2.392,2.392,0,0,1,2.392,2.393v2a2.394,2.394,0,0,1-.7,1.692,2.394,2.394,0,0,1-1.692.7H70.741a2.392,2.392,0,0,1-2.393-2.393" fill="#d1e1e9"/>
        <path id="Path_791" data-name="Path 791" d="M111.962,320.057v-2a2.389,2.389,0,0,1,.7-1.692,2.389,2.389,0,0,1,1.692-.7H205.38a2.392,2.392,0,0,1,2.392,2.393v2a2.394,2.394,0,0,1-.7,1.692,2.394,2.394,0,0,1-1.692.7H114.355a2.392,2.392,0,0,1-2.393-2.393" fill="#d1e1e9"/>
        <path id="Path_792" data-name="Path 792" d="M71.451,291.436c4.559,0,4.567-7.086,0-7.086s-4.567,7.086,0,7.086" fill="#d1e1e9"/>
        <path id="Path_793" data-name="Path 793" d="M83.916,291.436c4.559,0,4.567-7.086,0-7.086s-4.567,7.086,0,7.086" fill="#d1e1e9"/>
        <path id="Path_794" data-name="Path 794" d="M96.382,291.436c4.56,0,4.568-7.086,0-7.086s-4.567,7.086,0,7.086" fill="#d1e1e9"/>
        <path id="Path_795" data-name="Path 795" d="M248.389,190.719a3.839,3.839,0,0,0-3.839-3.839c-1.271,0-2.389,2.561-3.088,3.513-.7-.952-1.817-3.513-3.089-3.513a3.839,3.839,0,0,0-3.839,3.839c0,1.868,6.928,8.41,6.928,8.41s6.927-6.542,6.927-8.41" fill="#d50a2a"/>
        <path id="Path_796" data-name="Path 796" d="M21.94,151.578V125.425H61.233v26.153a13.138,13.138,0,0,1-13.14,13.14H35.08a13.142,13.142,0,0,1-13.14-13.14" fill="#b12826"/>
        <path id="Path_797" data-name="Path 797" d="M61.233,151.578V125.425h39.293v26.153a13.138,13.138,0,0,1-13.14,13.14H74.373a13.142,13.142,0,0,1-13.14-13.14" fill="#ccb2a3"/>
        <path id="Path_798" data-name="Path 798" d="M100.526,151.578V125.425h39.293v26.153a13.138,13.138,0,0,1-13.14,13.14H113.666a13.142,13.142,0,0,1-13.14-13.14" fill="#b12826"/>
        <path id="Path_799" data-name="Path 799" d="M139.819,151.578V125.425h39.293v26.153a13.138,13.138,0,0,1-13.14,13.14H152.959a13.142,13.142,0,0,1-13.14-13.14" fill="#ccb2a3"/>
        <path id="Path_800" data-name="Path 800" d="M179.112,151.578V125.425H218.4v26.153a13.138,13.138,0,0,1-13.14,13.14H192.252a13.142,13.142,0,0,1-13.14-13.14" fill="#b12826"/>
        <path id="Path_801" data-name="Path 801" d="M218.406,151.578V125.425H257.7v26.153a13.138,13.138,0,0,1-13.14,13.14H231.546a13.142,13.142,0,0,1-13.14-13.14" fill="#ccb2a3"/>
        <path id="Path_802" data-name="Path 802" d="M257.7,151.578V125.425h39.293v26.153a13.138,13.138,0,0,1-13.14,13.14H270.839a13.137,13.137,0,0,1-13.14-13.14" fill="#b12826"/>
        <path id="Path_803" data-name="Path 803" d="M267.089,79.313H241.462L257.7,125.426h39.293Z" fill="#dc3331"/>
        <path id="Path_804" data-name="Path 804" d="M115.464,79.313l-14.938,46.113h39.293l6.313-46.113Z" fill="#dc3331"/>
        <path id="Path_805" data-name="Path 805" d="M51.843,79.313l-29.9,46.113H61.233L80.88,79.313Z" fill="#dc3331"/>
        <path id="Path_806" data-name="Path 806" d="M80.88,79.313,61.234,125.426h39.293l14.938-46.113Z" fill="#ffdcc8"/>
        <path id="Path_807" data-name="Path 807" d="M207.04,79.313l11.366,46.113H257.7L241.462,79.313Z" fill="#ffdcc8"/>
        <path id="Path_808" data-name="Path 808" d="M146.132,79.313l-6.313,46.113h39.293l-3.9-46.113Z" fill="#ffdcc8"/>
        <path id="Path_809" data-name="Path 809" d="M175.215,79.313l3.9,46.113h39.293L207.04,79.313Z" fill="#dc3331"/>
        <path id="Path_810" data-name="Path 810" d="M296.045,462.732s3.523-17.108-9.561-17.108-8.553,19.121-8.553,19.121" fill="none" stroke="#e8940e" stroke-miterlimit="10" stroke-width="1"/>
        <path id="Path_811" data-name="Path 811" d="M291.265,466.757s2.641-21.133-9.938-21.133-6.542,21.133-6.542,21.133" fill="none" stroke="#e8940e" stroke-miterlimit="10" stroke-width="1"/>
        <path id="Path_812" data-name="Path 812" d="M248.242,436.063s4.277-25.41-12.076-25.41-10.064,25.41-10.064,25.41" fill="none" stroke="#e8940e" stroke-miterlimit="10" stroke-width="1"/>
        <path id="Path_813" data-name="Path 813" d="M217.8,436.063s-3.418-25.41,9.057-25.41,15.1,11.825,12.832,25.41" fill="none" stroke="#e8940e" stroke-miterlimit="10" stroke-width="1"/>
        <path id="Path_814" data-name="Path 814" d="M268.37,433.088H201.447l10.133,85.677h66.351Z" fill="#ffba51"/>
        <path id="Path_815" data-name="Path 815" d="M201.447,433.088h-7.3l-10.567,85.677h28Z" fill="#fa881c"/>
        <path id="Path_816" data-name="Path 816" d="M277.93,518.764l-7.548,3.846H249.248l8.051-59.878h6.039Z" fill="#b00a20"/>
        <path id="Path_817" data-name="Path 817" d="M310.638,462.732h-47.3l7.044,59.879h48.809Z" fill="#d50a2a"/>
        <path id="Path_818" data-name="Path 818" d="M122.779,68.139v-.075a2.39,2.39,0,0,1,2.389-2.389h68.6a2.39,2.39,0,0,1,2.389,2.389v.075a2.394,2.394,0,0,1-.7,1.689,2.374,2.374,0,0,1-.776.518,2.348,2.348,0,0,1-.914.182h-68.6a2.39,2.39,0,0,1-2.389-2.389" fill="#8d68a9"/>
        <path id="Path_819" data-name="Path 819" d="M305.336,342.9h-63.7a6.312,6.312,0,0,0-6.312,6.312v13.7a6.308,6.308,0,0,0,5.294,6.222l-.451,6.491,3.913-6.4h61.253a6.312,6.312,0,0,0,6.311-6.312v-13.7a6.312,6.312,0,0,0-6.311-6.312" fill="#d9d2e9"/>
        <path id="Path_820" data-name="Path 820" d="M261.6,359.533a3.2,3.2,0,1,0-3.2-3.195,3.23,3.23,0,0,0,3.2,3.195" fill="#fff"/>
        <path id="Path_821" data-name="Path 821" d="M274.2,359.533a3.2,3.2,0,1,0-3.2-3.195,3.23,3.23,0,0,0,3.2,3.195" fill="#fff"/>
        <path id="Path_822" data-name="Path 822" d="M286.794,359.533a3.2,3.2,0,1,0-3.2-3.195,3.23,3.23,0,0,0,3.2,3.195" fill="#fff"/>
        <g id="Group_18" data-name="Group 18" opacity="0.141">
          <g id="Group_17" data-name="Group 17">
            <g id="Group_16" data-name="Group 16" clip-path="url(#clip-path-4)">
              <path id="Path_823" data-name="Path 823" d="M214.6,71.192q2.928,0,5.841.056t5.785.166q2.871.109,5.673.275t5.506.381q2.7.216,5.286.484t5.016.581q2.435.315,4.7.674t4.333.76q2.07.4,3.927.839t3.484.909q1.626.471,3.006.97t2.5,1.023a17.2,17.2,0,0,1,1.97,1.066,8.875,8.875,0,0,1,1.421,1.1,4.306,4.306,0,0,1,.858,1.119,2.368,2.368,0,0,1,0,2.26,4.326,4.326,0,0,1-.858,1.12,8.932,8.932,0,0,1-1.421,1.1,17.2,17.2,0,0,1-1.97,1.066q-1.121.523-2.5,1.023t-3.006.971q-1.626.471-3.484.908t-3.927.839q-2.07.4-4.333.76t-4.7.674q-2.433.315-5.016.582t-5.286.484q-2.7.216-5.506.381t-5.673.275q-2.871.11-5.785.166t-5.841.055q-2.928,0-5.841-.055t-5.785-.166q-2.871-.111-5.673-.275t-5.506-.381q-2.7-.217-5.286-.484t-5.016-.582q-2.435-.315-4.7-.674t-4.333-.76q-2.07-.4-3.927-.839t-3.484-.908q-1.626-.471-3.006-.971t-2.5-1.023a17.2,17.2,0,0,1-1.97-1.066,8.93,8.93,0,0,1-1.421-1.1,4.326,4.326,0,0,1-.858-1.12,2.368,2.368,0,0,1,0-2.26,4.306,4.306,0,0,1,.858-1.119,8.874,8.874,0,0,1,1.421-1.1,17.2,17.2,0,0,1,1.97-1.066q1.121-.523,2.5-1.023t3.006-.97q1.626-.471,3.484-.909t3.927-.839q2.07-.4,4.333-.76t4.7-.674q2.433-.313,5.016-.581t5.286-.484q2.7-.217,5.506-.381t5.673-.275q2.871-.111,5.785-.166t5.841-.056" fill="#070909"/>
            </g>
          </g>
        </g>
        <path id="Path_824" data-name="Path 824" d="M184.442,40.108S181.764,27.1,191.714,27.1s6.5,14.543,6.5,14.543" fill="none" stroke="#30b2ea" stroke-miterlimit="10" stroke-width="1"/>
        <path id="Path_825" data-name="Path 825" d="M188.077,43.17S186.068,27.1,195.635,27.1,200.61,43.17,200.61,43.17" fill="none" stroke="#30b2ea" stroke-miterlimit="10" stroke-width="1"/>
        <path id="Path_826" data-name="Path 826" d="M220.8,19.826S217.544.5,229.982.5s7.655,19.326,7.655,19.326" fill="none" stroke="#e8940e" stroke-miterlimit="10" stroke-width="1"/>
        <path id="Path_827" data-name="Path 827" d="M243.951,19.826S246.55.5,237.062.5s-11.48,8.993-9.759,19.326" fill="none" stroke="#e8940e" stroke-miterlimit="10" stroke-width="1"/>
        <path id="Path_828" data-name="Path 828" d="M205.49,17.563h50.9l-7.707,65.161H198.219Z" fill="#ffba51"/>
        <path id="Path_829" data-name="Path 829" d="M256.388,17.563h5.549l8.037,65.161H248.681Z" fill="#fa881c"/>
        <path id="Path_830" data-name="Path 830" d="M198.219,82.723l5.74,2.925h16.074l-6.124-45.54h-4.592Z" fill="#30b2ea"/>
        <path id="Path_831" data-name="Path 831" d="M173.344,40.108h35.973l-5.358,45.54H166.838Z" fill="#7dcbf3"/>
        <g id="Group_21" data-name="Group 21" opacity="0.141">
          <g id="Group_20" data-name="Group 20">
            <g id="Group_19" data-name="Group 19" clip-path="url(#clip-path-5)">
              <path id="Path_832" data-name="Path 832" d="M64.424,486.836q3.165,0,6.315.053t6.253.159q3.1.106,6.133.264t5.953.365q2.923.207,5.715.463t5.423.557q2.631.3,5.078.646t4.685.728q2.238.384,4.245.8t3.767.871q1.758.45,3.25.929t2.7.98a19.611,19.611,0,0,1,2.13,1.02,9.64,9.64,0,0,1,1.536,1.052,4.243,4.243,0,0,1,.928,1.072,2.045,2.045,0,0,1,0,2.165,4.244,4.244,0,0,1-.928,1.072,9.575,9.575,0,0,1-1.536,1.051,19.414,19.414,0,0,1-2.13,1.021q-1.21.5-2.7.98t-3.25.929q-1.759.451-3.767.871t-4.245.8q-2.238.384-4.685.728t-5.078.646q-2.631.3-5.423.557t-5.715.463q-2.924.208-5.953.365t-6.133.264q-3.1.1-6.253.159t-6.315.053q-3.165,0-6.315-.053t-6.253-.159q-3.1-.107-6.133-.264t-5.953-.365q-2.924-.207-5.715-.463t-5.423-.557q-2.631-.3-5.078-.646t-4.685-.728q-2.238-.384-4.245-.8t-3.767-.871q-1.758-.45-3.25-.929t-2.7-.98a19.414,19.414,0,0,1-2.13-1.021,9.575,9.575,0,0,1-1.536-1.051,4.244,4.244,0,0,1-.928-1.072,2.045,2.045,0,0,1,0-2.165,4.243,4.243,0,0,1,.928-1.072,9.639,9.639,0,0,1,1.536-1.052,19.611,19.611,0,0,1,2.13-1.02q1.211-.5,2.7-.98t3.25-.929q1.759-.451,3.767-.871t4.245-.8q2.238-.384,4.685-.728t5.078-.646q2.631-.3,5.423-.557t5.715-.463q2.924-.209,5.953-.365t6.133-.264q3.1-.105,6.253-.159t6.315-.053" fill="#070909"/>
            </g>
          </g>
        </g>
        <path id="Path_833" data-name="Path 833" d="M47.721,412.821s-3.556-15.6,10.038-15.6,8.367,15.6,8.367,15.6" fill="none" stroke="#0097d0" stroke-miterlimit="10" stroke-width="1"/>
        <path id="Path_834" data-name="Path 834" d="M73.028,412.821s2.841-15.6-7.529-15.6-12.55,7.261-10.667,15.6" fill="none" stroke="#0097d0" stroke-miterlimit="10" stroke-width="1"/>
        <path id="Path_835" data-name="Path 835" d="M30.989,410.994H86.622l-7.57,88H23.9Z" fill="#7dcbf3"/>
        <path id="Path_836" data-name="Path 836" d="M86.623,410.994h6.065l9.638,88H79.053Z" fill="#30b2ea"/>
      </g>
    </g>
  </g>
</svg>
